<?xml version="1.0" standalone="no"?>
<!DOCTYPE svg PUBLIC "-//W3C//DTD SVG 20010904//EN"
 "http://www.w3.org/TR/2001/REC-SVG-20010904/DTD/svg10.dtd">
<svg version="1.0" xmlns="http://www.w3.org/2000/svg"
 width="1411.000000pt" height="1411.000000pt" viewBox="0 0 1411.000000 1411.000000"
 preserveAspectRatio="xMidYMid meet">
<metadata>
Created by potrace 1.11, written by Peter Selinger 2001-2013
</metadata>
<g transform="translate(0.000000,1411.000000) scale(0.100000,-0.100000)"
fill="#000000" stroke="none">
<path d="M10267 13954 c-1 -1 -42 -5 -92 -8 -76 -5 -126 -14 -245 -41 -53 -11
-184 -62 -254 -96 -368 -184 -634 -512 -735 -909 -11 -47 -25 -114 -30 -150
-14 -99 -6 -372 13 -460 98 -445 380 -803 779 -990 48 -23 95 -43 105 -45 9
-2 31 -8 47 -15 43 -17 181 -49 245 -58 71 -9 309 -9 380 0 176 24 372 94 535
193 l75 46 53 -29 c28 -16 124 -71 212 -122 88 -51 176 -102 195 -113 19 -11
98 -56 175 -101 77 -45 147 -85 155 -89 8 -4 31 -17 50 -28 55 -33 210 -123
260 -152 25 -13 171 -98 325 -187 154 -89 313 -181 352 -203 l73 -42 0 -3058
0 -3057 -57 31 c-32 17 -78 43 -103 58 -25 15 -70 41 -100 58 -30 16 -80 45
-110 63 -30 18 -71 42 -90 53 -42 24 -298 171 -510 294 -85 49 -279 161 -430
248 -151 87 -277 159 -279 161 -2 2 -5 943 -5 2091 l-1 2088 -110 64 c-163 95
-425 246 -465 268 -19 11 -91 53 -160 93 -69 40 -139 81 -157 91 -147 84 -460
265 -553 319 -63 37 -135 78 -160 92 -25 14 -107 62 -184 107 -76 44 -139 81
-141 81 -1 0 -91 52 -200 115 -108 63 -199 115 -201 115 -3 0 -33 17 -67 39
-57 35 -535 312 -637 369 -25 14 -105 61 -179 104 -74 43 -136 78 -138 78 -2
0 -20 11 -41 23 -20 13 -57 35 -82 49 -25 14 -128 74 -230 133 -102 59 -203
117 -225 130 -22 12 -93 52 -158 90 l-117 67 -28 -18 c-15 -10 -36 -24 -47
-30 -54 -31 -272 -156 -285 -164 -53 -33 -151 -90 -154 -90 -3 0 -312 -177
-366 -210 -23 -14 -121 -71 -156 -90 -53 -31 -298 -172 -329 -192 -16 -10 -37
-21 -45 -25 -8 -4 -64 -36 -125 -71 -204 -120 -290 -169 -335 -194 -66 -37
-93 -53 -325 -188 -115 -67 -226 -131 -245 -141 -19 -11 -50 -28 -68 -39 -17
-11 -137 -80 -265 -153 -127 -74 -293 -169 -367 -212 -74 -43 -211 -122 -304
-176 l-170 -97 -35 22 c-20 13 -61 36 -91 53 -74 40 -547 314 -638 369 -40 24
-74 44 -77 44 -2 0 -28 14 -57 31 -49 29 -262 153 -340 198 -18 10 -89 51
-158 91 -165 96 -187 108 -240 138 -25 14 -78 45 -118 69 -41 24 -76 43 -79
43 -3 0 -17 8 -31 19 -15 10 -47 29 -72 43 -25 14 -157 90 -295 170 -137 79
-356 206 -485 280 -129 75 -251 145 -270 157 -19 11 -42 24 -50 28 -8 3 -31
16 -50 28 -19 12 -55 33 -80 47 -25 14 -96 55 -157 91 l-113 65 0 -4413 0
-4413 53 -30 c28 -15 120 -68 202 -116 83 -49 168 -98 190 -111 33 -19 129
-74 393 -226 17 -11 49 -29 70 -40 20 -12 74 -43 120 -70 45 -27 85 -49 88
-49 3 0 18 -8 32 -19 15 -10 47 -29 72 -43 25 -14 142 -81 260 -150 118 -68
235 -136 260 -150 25 -14 155 -89 289 -167 133 -77 245 -141 247 -141 2 0 33
-18 68 -40 35 -22 68 -40 75 -40 6 0 11 -8 12 -17 2 -47 16 -147 35 -243 4
-21 43 -151 53 -175 186 -459 554 -770 1031 -872 121 -26 467 -25 541 1 8 3
25 7 39 10 14 2 45 10 70 17 25 7 50 13 57 15 6 1 51 19 100 40 419 179 714
530 819 974 23 100 27 137 28 285 1 148 -8 276 -20 296 -2 4 -6 24 -10 44 -10
65 -74 236 -120 324 -80 152 -128 215 -264 351 -201 201 -472 339 -755 385
-81 13 -330 13 -410 0 -130 -21 -146 -25 -236 -55 -167 -56 -326 -143 -454
-249 -27 -22 -53 -41 -58 -41 -4 0 -54 26 -110 59 -56 32 -118 68 -137 79 -19
11 -91 52 -160 92 -69 40 -143 83 -165 95 -22 13 -80 46 -130 75 -49 29 -103
60 -120 70 -16 9 -149 86 -295 170 -146 84 -337 195 -425 245 l-160 93 -3
3060 -2 3060 112 -65 c62 -35 120 -68 128 -73 8 -5 50 -30 92 -55 42 -25 79
-45 81 -45 3 0 35 -18 72 -41 37 -22 83 -49 101 -60 19 -10 120 -69 226 -130
106 -61 209 -121 228 -132 47 -26 190 -109 215 -124 11 -7 27 -15 35 -19 8 -4
31 -17 50 -29 31 -20 87 -51 160 -92 14 -8 43 -25 65 -38 22 -14 55 -32 73
-41 18 -9 35 -21 39 -27 3 -5 6 -947 6 -2093 l-1 -2084 112 -64 c62 -35 127
-73 146 -84 164 -93 743 -428 780 -451 14 -8 39 -22 55 -31 17 -9 118 -67 225
-129 107 -63 210 -122 228 -133 18 -10 93 -53 165 -95 73 -42 204 -118 293
-169 88 -50 232 -133 320 -184 87 -51 179 -104 204 -118 25 -14 62 -36 82 -49
21 -12 40 -23 42 -23 3 0 38 -19 78 -43 136 -81 243 -143 258 -150 8 -4 29
-16 45 -26 30 -18 300 -175 410 -238 33 -18 67 -38 75 -43 62 -39 625 -360
630 -360 4 0 13 -7 20 -15 7 -8 20 -15 29 -15 9 0 118 59 241 131 124 72 248
143 275 158 28 16 138 79 245 142 107 62 212 122 232 133 36 21 101 58 348
202 69 39 253 146 410 237 157 90 373 215 480 277 107 62 211 122 230 132 65
38 428 247 462 267 18 11 44 26 58 34 14 7 86 49 160 92 74 43 178 103 230
133 52 30 113 65 135 78 22 13 58 33 80 44 l41 21 135 -79 c75 -44 156 -91
180 -104 24 -14 62 -35 84 -48 22 -12 150 -86 285 -164 135 -79 357 -208 495
-287 137 -79 257 -148 267 -154 9 -5 34 -20 55 -31 21 -12 137 -79 258 -149
121 -71 238 -138 260 -150 22 -13 81 -46 130 -75 50 -29 106 -61 125 -72 19
-11 91 -53 160 -93 69 -40 141 -82 160 -93 19 -11 150 -86 290 -167 140 -81
270 -156 288 -166 18 -11 66 -38 105 -61 40 -22 91 -52 115 -65 l42 -25 0
4414 -1 4413 -131 75 c-72 41 -154 88 -182 104 -28 15 -121 69 -206 119 -85
50 -173 101 -195 113 -22 12 -123 70 -225 129 -102 60 -201 117 -220 128 -19
11 -107 61 -195 112 -88 51 -311 179 -495 285 -184 106 -390 225 -458 265
l-123 72 -1 129 c-1 225 -48 424 -148 624 -214 426 -652 722 -1120 756 -41 3
-90 7 -108 8 -18 1 -33 1 -35 0z m-3159 -3527 c20 -13 44 -27 52 -30 8 -4 31
-17 50 -28 37 -22 330 -192 390 -226 19 -11 107 -62 195 -113 88 -51 176 -102
195 -113 19 -11 76 -43 125 -72 50 -29 106 -62 125 -73 19 -11 91 -52 160 -92
69 -39 143 -82 165 -95 22 -12 81 -46 130 -75 50 -29 108 -62 130 -75 22 -12
166 -95 320 -185 154 -89 298 -172 320 -185 70 -39 109 -61 165 -95 30 -18 69
-41 86 -50 253 -144 342 -195 354 -206 13 -11 15 -218 15 -1759 l0 -1747 -125
-72 c-227 -131 -455 -264 -490 -285 -19 -11 -42 -24 -50 -28 -8 -4 -166 -94
-350 -200 -184 -107 -344 -199 -355 -205 -73 -42 -394 -229 -463 -269 -45 -27
-85 -49 -88 -49 -2 0 -17 -8 -32 -19 -29 -20 -400 -234 -492 -284 -30 -16 -59
-33 -65 -37 -8 -7 -90 -54 -365 -213 -19 -11 -63 -35 -96 -54 l-62 -34 -181
106 c-99 58 -184 105 -187 105 -3 0 -20 10 -37 22 -16 12 -48 31 -69 42 -22
12 -105 59 -185 106 -81 47 -167 97 -192 111 -93 53 -117 67 -167 96 -27 17
-70 41 -95 55 -24 14 -129 75 -234 135 -104 61 -352 204 -550 318 -198 115
-377 219 -397 232 -21 12 -40 23 -43 23 -2 0 -77 43 -166 95 -89 52 -163 95
-166 95 -2 0 -39 22 -83 50 -44 27 -81 49 -83 48 -1 -1 -13 5 -27 14 -14 9
-57 34 -95 56 l-70 40 0 1743 c0 959 4 1749 8 1756 4 6 20 18 35 26 24 12 303
172 342 196 30 19 336 195 380 219 25 14 50 28 55 32 6 4 26 17 45 28 19 10
123 70 230 132 107 62 210 121 228 131 67 39 170 98 292 169 69 39 143 82 165
95 87 49 436 251 535 309 58 34 112 65 120 69 8 3 141 80 295 171 154 90 288
165 298 165 9 1 34 -9 55 -22z"/>
<path d="M6745 8787 c-573 -332 -960 -555 -995 -575 -102 -57 -426 -245 -429
-248 -2 -2 -5 -455 -5 -1005 l-1 -1002 35 -23 c19 -13 38 -24 42 -24 4 0 31
-15 61 -32 29 -18 61 -38 72 -45 11 -7 43 -25 70 -41 104 -60 132 -75 195
-112 36 -21 81 -47 100 -57 19 -11 91 -53 160 -93 69 -40 144 -84 167 -97 23
-12 108 -62 190 -109 81 -48 172 -100 201 -116 30 -17 99 -57 154 -89 55 -32
101 -59 103 -59 1 0 44 -25 95 -55 79 -46 96 -53 114 -43 11 6 136 77 276 158
140 81 271 157 290 167 39 23 598 345 810 468 74 43 144 83 155 90 103 56 185
109 185 118 1 19 1 1887 0 1947 l0 55 -108 61 c-140 81 -678 392 -717 415 -16
10 -41 24 -55 32 -19 10 -469 269 -805 464 -22 12 -45 23 -50 23 -6 0 -145
-78 -310 -173z"/>
</g>
</svg>
